HIERARCHY
ROOT Hips
{
    OFFSET 0.000000 0.000000 0.000000
    CHANNELS 6 Xposition Yposition Zposition Zrotation Xrotation Yrotation
    JOINT Spine
    {
        OFFSET -0.000000 7.246840 0.000000
        CHANNELS 3 Zrotation Xrotation Yrotation
        JOINT Spine1
        {
            OFFSET -0.000000 20.289354 0.000000
            CHANNELS 3 Zrotation Xrotation Yrotation
            JOINT Neck
            {
                OFFSET -0.000000 20.206032 1.836912
                CHANNELS 3 Zrotation Xrotation Yrotation
                JOINT Head
                {
                    OFFSET -0.000000 12.372654 -1.767522
                    CHANNELS 3 Zrotation Xrotation Yrotation
                    End Site
                    {
                        OFFSET -0.000000 22.094025 0.000000
                    }
                }
            }
            JOINT LeftShoulder
            {
                OFFSET 3.465871 17.201674 -0.568930
                CHANNELS 3 Zrotation Xrotation Yrotation
                JOINT LeftArm
                {
                    OFFSET 14.070313 0.000000 0.000000
                    CHANNELS 3 Zrotation Xrotation Yrotation
                    JOINT LeftForeArm
                    {
                        OFFSET 26.549477 0.000000 0.000000
                        CHANNELS 3 Zrotation Xrotation Yrotation
                        JOINT LeftHand
                        {
                            OFFSET 18.880413 0.000000 0.000000
                            CHANNELS 3 Zrotation Xrotation Yrotation
                            End Site
                            {
                                OFFSET 13.256415 0.000000 0.000000
                            }
                        }
                    }
                }
            }
            JOINT RightShoulder
            {
                OFFSET -3.526370 17.201674 -0.568930
                CHANNELS 3 Zrotation Xrotation Yrotation
                JOINT RightArm
                {
                    OFFSET -14.070313 0.000000 0.000000
                    CHANNELS 3 Zrotation Xrotation Yrotation
                    JOINT RightForeArm
                    {
                        OFFSET -26.549477 0.000000 0.000000
                        CHANNELS 3 Zrotation Xrotation Yrotation
                        JOINT RightHand
                        {
                            OFFSET -18.880413 0.000000 0.000000
                            CHANNELS 3 Zrotation Xrotation Yrotation
                            End Site
                            {
                                OFFSET -13.256415 0.000000 0.000000
                            }
                        }
                    }
                }
            }
        }
    }
    JOINT LeftUpLeg
    {
        OFFSET 8.837609 0.000000 0.000000
        CHANNELS 3 Zrotation Xrotation Yrotation
        JOINT LeftLeg
        {
            OFFSET -0.000000 -41.345005 0.000000
            CHANNELS 3 Zrotation Xrotation Yrotation
            JOINT LeftFoot
            {
                OFFSET -0.000000 -35.500874 0.000000
                CHANNELS 3 Zrotation Xrotation Yrotation
                JOINT LeftToeBase
                {
                    OFFSET -0.000000 -5.744446 13.256415
                    CHANNELS 3 Zrotation Xrotation Yrotation
                    End Site
                    {
                        OFFSET -0.000000 0.000000 3.535044
                    }
                }
            }
        }
    }
    JOINT RightUpLeg
    {
        OFFSET -8.837609 0.000000 0.000000
        CHANNELS 3 Zrotation Xrotation Yrotation
        JOINT RightLeg
        {
            OFFSET -0.000000 -41.345005 0.000000
            CHANNELS 3 Zrotation Xrotation Yrotation
            JOINT RightFoot
            {
                OFFSET -0.000000 -35.500874 0.000000
                CHANNELS 3 Zrotation Xrotation Yrotation
                JOINT RightToeBase
                {
                    OFFSET -0.000000 -5.744446 13.256415
                    CHANNELS 3 Zrotation Xrotation Yrotation
                    End Site
                    {
                        OFFSET -0.000000 0.000000 3.535044
                    }
                }
            }
        }
    }
}
MOTION
Frames:    13
Frame Time:    0.010000
3.508002    82.318436    -50.696800    3.341738    3.217412    0.544155    -6.539306    -15.024431    -1.447516    3.630343    3.443888    -0.693509    1.602391    30.910046    -2.234175    -0.035033    -8.847347    -2.100049    17.870134    0.743308    7.442221    -32.119190    12.493043    -12.979297    6.424455    -10.087384    -19.314877    -24.251560    -11.041444    9.587422    -14.922437    0.113919    12.522324    25.008945    8.559546    7.991487    -5.536551    -9.015148    10.526597    5.546984    -8.295760    4.482226    -2.472886    5.318997    -0.536725    -2.282639    -9.022498    -5.888436    4.078157    1.267980    -1.621873    -1.534205    -0.594292    2.155349    -8.121159    4.615756    1.429817    8.490572    -9.400497    2.705290    -0.108122    -0.978771    -7.247937    -0.431571    -2.494589    0.795609    
3.506112    82.319221    -50.693512    3.338497    3.215745    0.536347    -6.506410    -15.011244    -1.434988    3.592867    3.408299    -0.683837    1.596712    30.908503    -2.221789    -0.021762    -8.830590    -2.085130    17.870159    0.749818    7.442636    -32.114929    12.475273    -12.999117    6.424398    -10.092610    -19.264765    -24.223225    -11.035988    9.535088    -14.928511    0.119361    12.521312    24.992300    8.603521    7.984497    -5.541573    -9.049308    10.575153    5.538410    -8.327755    4.477253    -2.464422    5.318696    -0.532055    -2.299341    -9.005877    -5.872022    4.080600    1.251293    -1.645193    -1.545131    -0.617260    2.171000    -8.117337    4.618105    1.426548    8.495552    -9.401402    2.690226    -0.121475    -0.973936    -7.221477    -0.442639    -2.509332    0.816151    
3.505326    82.319878    -50.691177    3.342633    3.216580    0.533566    -6.492337    -15.003540    -1.429708    3.567358    3.380319    -0.679244    1.584892    30.905069    -2.220773    0.007552    -8.811005    -2.079460    17.870012    0.743603    7.434134    -32.122482    12.447572    -12.987062    6.422648    -10.101307    -19.250807    -24.180481    -11.037904    9.515310    -14.935181    0.137615    12.510651    24.967390    8.613908    8.004649    -5.546113    -9.084641    10.593493    5.545521    -8.360179    4.506603    -2.470242    5.318284    -0.541673    -2.290492    -9.005734    -5.854179    4.086954    1.246474    -1.654147    -1.551152    -0.590618    2.179106    -8.120467    4.619130    1.415996    8.496508    -9.403912    2.677682    -0.336241    -1.018188    -7.143149    -0.487558    -2.231489    0.896143    
3.502769    82.320343    -50.688370    3.348040    3.217529    0.524391    -6.482264    -14.999061    -1.423754    3.549896    3.358974    -0.673698    1.608699    30.897028    -2.219442    -0.036636    -8.798921    -2.084351    17.871357    0.745402    7.439161    -32.136738    12.409897    -12.994205    6.419340    -10.076885    -19.229095    -24.148092    -11.008103    9.494111    -14.940996    0.153717    12.510381    24.947510    8.561448    8.019237    -5.549945    -9.094165    10.626857    5.556512    -8.368283    4.486422    -2.472824    5.319242    -0.545005    -2.307891    -8.998010    -5.803975    4.107403    1.241244    -1.701950    -1.563178    -0.594257    2.196047    -8.122881    4.617757    1.421511    8.487435    -9.399545    2.714547    -0.092766    -0.972592    -7.224855    -0.445124    -2.519443    0.820826    
3.498628    82.321312    -50.687302    3.347891    3.222310    0.521497    -6.468940    -14.998484    -1.421019    3.533289    3.338790    -0.671521    1.594978    30.892420    -2.203700    -0.021247    -8.790947    -2.066717    17.865044    0.743145    7.430252    -32.131256    12.374724    -12.983261    6.409831    -10.039097    -19.214979    -24.162283    -10.972591    9.487346    -14.944777    0.165247    12.507278    24.915495    8.531987    8.043740    -5.548207    -9.082144    10.637148    5.554426    -8.355131    4.503864    -2.472163    5.309879    -0.530726    -2.290739    -8.988572    -5.857595    4.078233    1.246078    -1.639334    -1.546440    -0.616210    2.172824    -8.122426    4.612643    1.455251    8.486061    -9.403544    2.683632    -0.121026    -0.970459    -7.235813    -0.449591    -2.533047    0.829191    
3.492361    82.321838    -50.685226    3.350151    3.219530    0.516282    -6.467193    -14.986909    -1.417966    3.530113    3.312091    -0.668567    1.600443    30.898678    -2.207105    -0.039944    -8.799295    -2.073432    17.866236    0.742296    7.425258    -32.135406    12.365897    -12.978930    6.412169    -10.009845    -19.195004    -24.205227    -10.944440    9.471605    -14.942898    0.155607    12.514627    24.880083    8.547719    8.039764    -5.551157    -9.060498    10.657271    5.565363    -8.331941    4.500280    -2.466864    5.315694    -0.565506    -2.296446    -8.996988    -5.832914    4.109442    1.250533    -1.638087    -1.556899    -0.578469    2.187017    -8.114495    4.614694    1.422419    8.482490    -9.396171    2.700984    -0.110876    -0.972184    -7.209503    -0.444083    -2.534291    0.819044    
3.489835    82.321838    -50.681805    3.350925    3.221040    0.511831    -6.451845    -14.988502    -1.416984    3.514930    3.298246    -0.668664    1.605768    30.903450    -2.192197    -0.065933    -8.816999    -2.062707    17.864685    0.735844    7.417513    -32.130333    12.384751    -12.952049    6.414462    -9.989229    -19.203396    -24.240866    -10.929023    9.485456    -14.945169    0.162492    12.518682    24.838053    8.562296    8.065364    -5.565493    -9.013254    10.662916    5.592232    -8.283337    4.471843    -2.469014    5.315221    -0.544213    -2.280778    -8.997851    -5.877490    4.082741    1.244444    -1.620094    -1.574708    -0.589322    2.212178    -8.113420    4.614815    1.426742    8.480483    -9.398085    2.689914    -0.184791    -0.967909    -7.217755    -0.482988    -2.503157    0.890482    
3.485984    82.322159    -50.679173    3.352828    3.221350    0.508414    -6.444108    -14.981459    -1.417624    3.501503    3.270891    -0.669392    1.614591    30.908476    -2.192014    -0.082326    -8.821031    -2.064728    17.873974    0.741699    7.421555    -32.132442    12.402601    -12.952141    6.416449    -9.985600    -19.200031    -24.268429    -10.933731    9.514245    -14.936946    0.166307    12.536562    24.785547    8.632360    8.069252    -5.572513    -8.995378    10.664660    5.569124    -8.265612    4.471070    -2.468026    5.314612    -0.555711    -2.304616    -8.980595    -5.778365    4.114294    1.232616    -1.688061    -1.558495    -0.599451    2.189538    -8.114279    4.616578    1.434582    8.478777    -9.401732    2.706339    -0.078731    -0.986263    -7.219475    -0.429206    -2.517447    0.791455    
3.480244    82.321548    -50.678314    3.357387    3.221045    0.505253    -6.444448    -14.972573    -1.419645    3.498915    3.249363    -0.671256    1.627696    30.913225    -2.186434    -0.111988    -8.838489    -2.063418    17.864754    0.747175    7.433030    -32.121075    12.419498    -12.963570    6.429164    -9.992396    -19.183266    -24.303160    -10.943702    9.520719    -14.938601    0.161658    12.550686    24.758795    8.639646    8.084457    -5.592601    -8.956734    10.599859    5.572670    -8.219443    4.649898    -2.467017    5.316960    -0.594366    -2.276465    -9.000998    -5.863873    4.073217    1.260666    -1.564010    -1.610660    -0.582171    2.262578    -8.113558    4.615592    1.438798    8.485526    -9.398929    2.684610    -0.097929    -0.988034    -7.182198    -0.420703    -2.507359    0.775687    
3.477009    82.321602    -50.675304    3.361637    3.222308    0.504224    -6.442290    -14.975360    -1.421059    3.499915    3.240201    -0.672504    1.607234    30.918579    -2.170689    -0.094215    -8.862289    -2.046087    17.862400    0.745790    7.438055    -32.119946    12.443018    -12.970452    6.423888    -10.014889    -19.172379    -24.325876    -10.972795    9.536032    -14.960182    0.159621    12.564541    24.731472    8.742421    8.084881    -5.620026    -9.002400    10.595381    5.602419    -8.260201    4.680506    -2.468509    5.313421    -0.571148    -2.294452    -8.976473    -5.839630    4.104979    1.230152    -1.614972    -1.554346    -0.597747    2.183687    -8.119819    4.619884    1.456539    8.487780    -9.408141    2.673883    -0.353794    -1.029332    -7.174062    -0.511387    -2.237923    0.940008    
3.471510    82.321426    -50.674309    3.361453    3.220704    0.503273    -6.445814    -14.969870    -1.421206    3.497779    3.226327    -0.672052    1.638467    30.911110    -2.176950    -0.101150    -8.863048    -2.049719    17.870987    0.754847    7.445766    -32.132030    12.455023    -12.991003    6.440284    -10.034655    -19.163757    -24.345446    -10.995856    9.554267    -14.939997    0.165843    12.569973    24.678087    8.788754    8.085808    -5.634414    -9.054970    10.598221    5.652129    -8.308429    4.700494    -2.468671    5.316707    -0.570174    -2.276636    -8.986068    -5.861243    4.087231    1.248677    -1.579469    -1.557985    -0.615251    2.189030    -8.113581    4.621281    1.450158    8.487204    -9.405229    2.689996    -0.123246    -0.992698    -7.218593    -0.445101    -2.493722    0.820544    
3.467553    82.320824    -50.671421    3.364903    3.219810    0.502032    -6.452317    -14.979026    -1.417186    3.508612    3.231112    -0.667074    1.624847    30.910820    -2.177683    -0.067021    -8.878365    -2.045024    17.864403    0.766634    7.417463    -32.143944    12.445356    -12.984156    6.437026    -10.069309    -19.168497    -24.334194    -11.036500    9.586140    -14.948850    0.178581    12.556122    24.655857    8.758835    8.113191    -5.643134    -9.083189    10.586926    5.681477    -8.334631    4.713110    -2.473330    5.322365    -0.577018    -2.282110    -8.983156    -5.784246    4.094318    1.235288    -1.645718    -1.552593    -0.599577    2.181248    -8.117149    4.624044    1.452411    8.492319    -9.409256    2.659091    -0.128003    -0.980636    -7.179994    -0.447937    -2.529675    0.826109    
3.462097    82.320816    -50.670422    3.365794    3.220957    0.502733    -6.458978    -14.985696    -1.418708    3.518872    3.234475    -0.667625    1.645406    30.901201    -2.180468    -0.081611    -8.887385    -2.048261    17.864731    0.769790    7.406406    -32.165886    12.453570    -12.966577    6.439038    -10.083040    -19.193457    -24.310116    -11.049331    9.599940    -14.945776    0.181063    12.549058    24.624317    8.718565    8.126290    -5.625340    -9.102465    10.613993    5.679456    -8.355033    4.699430    -2.466741    5.319313    -0.569286    -2.305787    -8.970310    -5.739916    4.120381    1.221519    -1.697216    -1.541783    -0.597551    2.166036    -8.115064    4.624909    1.456630    8.486299    -9.405799    2.702554    -0.335929    -1.039901    -7.190504    -0.493820    -2.230514    0.907643    
